<svg width="24" height="24" viewBox="0 0 24 24" fill="none" xmlns="http://www.w3.org/2000/svg">
<path d="M21.0907 1.34589H2.68194C1.80042 1.34589 1.08594 2.03853 1.08594 2.89341V21.3976C1.08594 22.2525 1.80066 22.9459 2.68194 22.9459H21.0907C21.9722 22.9459 22.6857 22.2523 22.6857 21.3976V2.89341C22.6857 2.03877 21.9722 1.34589 21.0907 1.34589ZM7.63434 19.4265H4.37082V9.67437H7.63434V19.4265ZM6.00282 8.34213H5.98098C4.88658 8.34213 4.17714 7.59357 4.17714 6.65661C4.17714 5.70069 4.90746 4.97253 6.02346 4.97253C7.1397 4.97253 7.82634 5.70045 7.84794 6.65661C7.84794 7.59381 7.13994 8.34213 6.00282 8.34213ZM19.3987 19.4265H16.1361V14.2089C16.1361 12.8976 15.6633 12.0031 14.4835 12.0031C13.5808 12.0031 13.0451 12.6067 12.8099 13.1892C12.7226 13.3975 12.7012 13.6884 12.7012 13.9792V19.4263H9.43914C9.43914 19.4263 9.48186 10.5888 9.43914 9.67412H12.7015V11.0568C13.1347 10.3924 13.9084 9.44469 15.6412 9.44469C17.7885 9.44469 19.3987 10.8376 19.3987 13.8345V19.4265ZM12.6803 11.0877C12.6861 11.0786 12.6938 11.0676 12.7015 11.057V11.0877H12.6803Z" fill="#313131"/>
</svg>
